<svg width="29" height="19" viewBox="0 0 29 19" fill="none" xmlns="http://www.w3.org/2000/svg">
<path d="M28.0599 14.9716L26.0317 4.78453C25.5707 2.43366 23.5425 0.635939 21.0995 0.589844H7.50133C5.01218 0.589844 2.93788 2.38757 2.52302 4.78453L0.494826 14.9716C0.44873 15.156 0.44873 15.3404 0.44873 15.5248C0.44873 16.9537 1.60112 18.1061 2.98398 18.1061C3.90589 18.1061 4.68951 17.6452 5.15046 16.9076L8.46933 12.759C9.02248 13.2661 9.71391 13.5888 10.4975 13.5888C12.157 13.5888 13.4937 12.252 13.4937 10.5465H15.1071C15.1071 12.2059 16.4438 13.5888 18.1033 13.5888C18.8869 13.5888 19.5783 13.3122 20.1315 12.8051L23.4503 16.9537C23.9113 17.6912 24.6949 18.1522 25.6168 18.1522C26.9997 18.1522 28.1521 16.9998 28.1521 15.5709C28.106 15.3404 28.106 15.156 28.0599 14.9716Z" fill="#333333"/>
</svg>
