<svg width="20" height="20" viewBox="0 0 20 20" fill="none" xmlns="http://www.w3.org/2000/svg">
<path d="M19.2215 6.12501C18.7197 4.92976 17.9896 3.84336 17.0719 2.92636C16.157 2.00776 15.0702 1.27742 13.8732 0.776805C12.647 0.261475 11.3295 -0.00268382 9.99895 2.05565e-05H9.95422C8.60092 0.00671698 7.29235 0.274574 6.05985 0.801359C4.87313 1.30711 3.79653 2.03874 2.89022 2.95537C1.98145 3.87032 1.25971 4.95292 0.765204 6.14287C0.251878 7.38029 -0.00822563 8.70766 0.000198256 10.0469C0.00690883 11.596 0.378227 13.1339 1.07165 14.5089V17.9018C1.07165 18.4688 1.53245 18.9286 2.09837 18.9286H5.49392C6.87825 19.6256 8.40588 19.9924 9.95645 20H10.0034C11.3411 20 12.6362 19.7411 13.8575 19.2344C15.0485 18.7397 16.1312 18.0179 17.0451 17.1094C17.9666 16.1964 18.6914 15.1295 19.1991 13.9397C19.7248 12.7076 19.9932 11.3973 19.9999 10.0447C20.0044 8.68528 19.7405 7.36608 19.2215 6.12501ZM5.53418 11.0714C4.94365 11.0714 4.46273 10.5915 4.46273 10C4.46273 9.40849 4.94365 8.92858 5.53418 8.92858C6.12471 8.92858 6.60564 9.40849 6.60564 10C6.60564 10.5915 6.12695 11.0714 5.53418 11.0714ZM9.99895 11.0714C9.40842 11.0714 8.9275 10.5915 8.9275 10C8.9275 9.40849 9.40842 8.92858 9.99895 8.92858C10.5895 8.92858 11.0704 9.40849 11.0704 10C11.0704 10.5915 10.5895 11.0714 9.99895 11.0714ZM14.4637 11.0714C13.8732 11.0714 13.3923 10.5915 13.3923 10C13.3923 9.40849 13.8732 8.92858 14.4637 8.92858C15.0543 8.92858 15.5352 9.40849 15.5352 10C15.5352 10.5915 15.0543 11.0714 14.4637 11.0714Z" fill="#ADADAD"/>
</svg>
