<svg width="25" height="24" viewBox="0 0 25 24" fill="none" xmlns="http://www.w3.org/2000/svg">
<path d="M24.8334 20.927L24.55 20.697C23.7462 20.0379 23.0427 19.2821 22.4584 18.45C21.8202 17.3017 21.4377 16.0476 21.3334 14.7614V10.973C21.3389 8.95277 20.5425 7.0002 19.094 5.48217C17.6454 3.96414 15.6443 2.98514 13.4667 2.72911V1.73984C13.4667 1.46832 13.3495 1.20792 13.1408 1.01592C12.9322 0.823927 12.6492 0.716064 12.3542 0.716064C12.0591 0.716064 11.7762 0.823927 11.5675 1.01592C11.3589 1.20792 11.2417 1.46832 11.2417 1.73984V2.74445C9.08356 3.01893 7.10665 4.00385 5.67712 5.51678C4.24758 7.02971 3.46228 8.96813 3.46667 10.973V14.7614C3.3623 16.0476 2.97982 17.3017 2.34167 18.45C1.7674 19.2801 1.07516 20.0357 0.283334 20.697L0 20.927V23.0896H24.8334V20.927Z" fill="#ADADAD"/>
</svg>
