<svg width="25" height="26" viewBox="0 0 25 26" fill="none" xmlns="http://www.w3.org/2000/svg">
<path d="M14.8452 25.6308H10.1556C9.86173 25.6309 9.57671 25.5338 9.34777 25.3557C9.11882 25.1776 8.95972 24.9292 8.89684 24.6517L8.37247 22.3047C7.67296 22.0084 7.00968 21.6378 6.39483 21.1997L4.0281 21.9285C3.74796 22.0149 3.4457 22.006 3.17149 21.9033C2.89729 21.8007 2.66765 21.6104 2.52071 21.3642L0.170736 17.4389C0.0253375 17.1924 -0.0292413 16.9055 0.0159286 16.6251C0.0610985 16.3447 0.203343 16.0874 0.41939 15.8954L2.25531 14.2759C2.17182 13.5423 2.17182 12.8021 2.25531 12.0685L0.41939 10.4528C0.203037 10.2606 0.0605991 10.0031 0.0154218 9.72248C-0.0297555 9.44183 0.0250077 9.15466 0.170736 8.90804L2.51556 4.98023C2.6625 4.73396 2.89214 4.54371 3.16634 4.44106C3.44054 4.3384 3.74281 4.32953 4.02295 4.41591L6.38968 5.14466C6.70404 4.92043 7.03128 4.71115 7.36883 4.5218C7.69479 4.3449 8.02977 4.1842 8.37247 4.04094L8.89813 1.69646C8.9607 1.41891 9.11951 1.17037 9.34821 0.992056C9.57691 0.813743 9.86178 0.716363 10.1556 0.716064H14.8452C15.139 0.716363 15.4239 0.813743 15.6526 0.992056C15.8813 1.17037 16.0401 1.41891 16.1027 1.69646L16.6335 4.04219C16.9942 4.19666 17.3472 4.36981 17.6886 4.5629C18.0069 4.74104 18.3148 4.93663 18.6111 5.14716L20.9791 4.4184C21.2591 4.33234 21.5611 4.34138 21.835 4.44401C22.1089 4.54665 22.3383 4.73672 22.4852 4.98272L24.8301 8.91053C25.129 9.41755 25.0259 10.0591 24.5814 10.454L22.7455 12.0735C22.829 12.8071 22.829 13.5473 22.7455 14.2809L24.5814 15.9004C25.0259 16.2965 25.129 16.9368 24.8301 17.4438L22.4852 21.3717C22.3383 21.6179 22.1087 21.8082 21.8344 21.9108C21.5602 22.0135 21.258 22.0224 20.9778 21.936L18.6111 21.2072C17.9967 21.6449 17.3339 22.0151 16.6348 22.3109L16.1027 24.6517C16.0398 24.929 15.8809 25.1773 15.6522 25.3553C15.4236 25.5334 15.1388 25.6306 14.8452 25.6308ZM12.4952 8.19049C11.1285 8.1905 9.81766 8.71548 8.85119 9.64997C7.88473 10.5845 7.34178 11.8519 7.34178 13.1734C7.34178 14.495 7.88473 15.7624 8.85119 16.6969C9.81766 17.6314 11.1285 18.1564 12.4952 18.1564C13.862 18.1564 15.1728 17.6314 16.1393 16.6969C17.1058 15.7624 17.6487 14.495 17.6487 13.1734C17.6487 11.8519 17.1058 10.5845 16.1393 9.64997C15.1728 8.71548 13.862 8.1905 12.4952 8.19049Z" fill="#ADADAD"/>
</svg>
