<svg width="26" height="24" viewBox="0 0 26 24" fill="none" xmlns="http://www.w3.org/2000/svg">
<path d="M17 4C17 5.06087 16.5786 6.07828 15.8284 6.82843C15.0783 7.57857 14.0609 8 13 8C11.9391 8 10.9217 7.57857 10.1716 6.82843C9.42143 6.07828 9 5.06087 9 4C9 2.93913 9.42143 1.92172 10.1716 1.17157C10.9217 0.421427 11.9391 0 13 0C14.0609 0 15.0783 0.421427 15.8284 1.17157C16.5786 1.92172 17 2.93913 17 4ZM4 8C4.79565 8 5.55871 7.68393 6.12132 7.12132C6.68393 6.55871 7 5.79565 7 5C7 4.20435 6.68393 3.44129 6.12132 2.87868C5.55871 2.31607 4.79565 2 4 2C3.20435 2 2.44129 2.31607 1.87868 2.87868C1.31607 3.44129 1 4.20435 1 5C1 5.79565 1.31607 6.55871 1.87868 7.12132C2.44129 7.68393 3.20435 8 4 8ZM22 8C22.7956 8 23.5587 7.68393 24.1213 7.12132C24.6839 6.55871 25 5.79565 25 5C25 4.20435 24.6839 3.44129 24.1213 2.87868C23.5587 2.31607 22.7956 2 22 2C21.2044 2 20.4413 2.31607 19.8787 2.87868C19.3161 3.44129 19 4.20435 19 5C19 5.79565 19.3161 6.55871 19.8787 7.12132C20.4413 7.68393 21.2044 8 22 8ZM7.222 11.025C7.38542 10.7155 7.6302 10.4565 7.92994 10.2759C8.22969 10.0953 8.57304 9.9999 8.923 10H17.077C17.587 10 18.0761 10.2026 18.4368 10.5632C18.7974 10.9239 19 11.413 19 11.923V18C18.9947 19.4702 18.4501 20.8874 17.4693 21.9828C16.4886 23.0781 15.14 23.7755 13.6792 23.9426C12.2185 24.1096 10.7473 23.7348 9.54451 22.8893C8.34175 22.0437 7.49115 20.7861 7.154 19.355C7.0515 18.9106 6.99984 18.456 7 18V11.923C7 11.599 7.08 11.293 7.222 11.025ZM5.5 11.923C5.5 11.603 5.544 11.293 5.626 11H1C0.734784 11 0.48043 11.1054 0.292893 11.2929C0.105357 11.4804 9.3661e-08 11.7348 9.3661e-08 12V17C-0.000150353 17.6953 0.180948 18.3787 0.525433 18.9826C0.869918 19.5866 1.36589 20.0904 1.96444 20.4442C2.56298 20.798 3.24342 20.9897 3.93865 21.0004C4.63388 21.0111 5.31988 20.8403 5.929 20.505C5.64431 19.7005 5.49922 18.8533 5.5 18V11.923ZM20.5 18C20.5007 18.8533 20.3557 19.7005 20.071 20.505C20.6801 20.8403 21.3661 21.0111 22.0613 21.0004C22.7566 20.9897 23.437 20.798 24.0356 20.4442C24.6341 20.0904 25.1301 19.5866 25.4746 18.9826C25.8191 18.3787 26.0002 17.6953 26 17V12C26 11.7348 25.8946 11.4804 25.7071 11.2929C25.5196 11.1054 25.2652 11 25 11H20.374C20.456 11.294 20.5 11.603 20.5 11.923V18Z" fill="#ADADAD"/>
</svg>
