<svg width="30" height="29" viewBox="0 0 30 29" fill="none" xmlns="http://www.w3.org/2000/svg">
<path d="M11.2007 17.2188C10.2832 17.2189 9.38626 16.9559 8.62334 16.4632C7.86042 15.9705 7.26579 15.2702 6.91465 14.4507C6.56352 13.6313 6.47166 12.7296 6.65068 11.8598C6.82971 10.9899 7.27157 10.1908 7.92041 9.56371L12.7073 4.93821C13.5773 4.09722 14.7572 3.62476 15.9876 3.62476C17.2179 3.62476 18.3979 4.09722 19.2679 4.93821C20.1379 5.77921 20.6267 6.91984 20.6267 8.10918C20.6267 9.29853 20.1379 10.4392 19.2679 11.2802L18.7495 11.7804L17.4229 10.4999L17.9451 9.99509C18.4616 9.49346 18.7512 8.81434 18.7505 8.10662C18.7498 7.3989 18.4588 6.72032 17.9413 6.21965C17.4147 5.73379 16.7147 5.46271 15.9867 5.46271C15.2587 5.46271 14.5586 5.73379 14.032 6.21965L9.24697 10.8452C8.99009 11.0932 8.78631 11.3877 8.64727 11.712C8.50824 12.0362 8.43667 12.3837 8.43667 12.7347C8.43667 13.0857 8.50824 13.4332 8.64727 13.7574C8.78631 14.0816 8.99009 14.3762 9.24697 14.6242C9.77363 15.1101 10.4737 15.3812 11.2017 15.3812C11.9297 15.3812 12.6297 15.1101 13.1563 14.6242L14.482 15.9057C14.052 16.3233 13.5406 16.6545 12.9774 16.8799C12.4142 17.1053 11.8103 17.2205 11.2007 17.2188Z" fill="#5579BD"/>
<path d="M18.7007 15.4063C17.7832 15.4064 16.8863 15.1434 16.1233 14.6507C15.3604 14.158 14.7658 13.4577 14.4147 12.6382C14.0635 11.8188 13.9717 10.9171 14.1507 10.0473C14.3297 9.17736 14.7716 8.37833 15.4204 7.75121L15.9388 7.25096L17.2645 8.53331L16.747 9.03356C16.2287 9.53458 15.9375 10.2141 15.9375 10.9226C15.9375 11.6312 16.2287 12.3107 16.747 12.8117C17.2736 13.2976 17.9737 13.5687 18.7017 13.5687C19.4297 13.5687 20.1297 13.2976 20.6563 12.8117L25.4423 8.18531C25.9596 7.68397 26.2501 7.00478 26.2501 6.29668C26.2501 5.58859 25.9596 4.9094 25.4423 4.40806C24.9156 3.9222 24.2156 3.65112 23.4876 3.65112C22.7596 3.65112 22.0596 3.9222 21.5329 4.40806L20.2073 3.12571C21.0773 2.28472 22.2572 1.81226 23.4876 1.81226C24.7179 1.81226 25.8979 2.28472 26.7679 3.12571C27.6379 3.96671 28.1267 5.10734 28.1267 6.29668C28.1267 7.48603 27.6379 8.62666 26.7679 9.46765L21.9829 14.0922C21.5529 14.51 21.0416 14.8413 20.4784 15.0668C19.9152 15.2924 19.3113 15.4078 18.7017 15.4063H18.7007Z" fill="#5579BD"/>
<path d="M22.5 27.1875H3.75C3.25287 27.187 2.77625 26.9959 2.42472 26.6561C2.0732 26.3163 1.8755 25.8556 1.875 25.375V7.25C1.8755 6.76944 2.0732 6.3087 2.42472 5.9689C2.77625 5.62909 3.25287 5.43798 3.75 5.4375H7.5V7.25H3.75V25.375H22.5V16.3125H24.375V25.375C24.3745 25.8556 24.1768 26.3163 23.8253 26.6561C23.4738 26.9959 22.9971 27.187 22.5 27.1875Z" fill="#5579BD"/>
</svg>
