<svg width="5" height="18" viewBox="0 0 5 18" fill="none" xmlns="http://www.w3.org/2000/svg">
<path d="M4.22848 16.2005C4.22848 16.5565 4.10611 16.9045 3.87685 17.2005C3.6476 17.4965 3.32175 17.7272 2.9405 17.8635C2.55926 17.9997 2.13976 18.0354 1.73503 17.9659C1.33031 17.8964 0.958549 17.725 0.66676 17.4733C0.374971 17.2215 0.176259 16.9008 0.0957547 16.5517C0.0152503 16.2025 0.0565681 15.8406 0.214483 15.5117C0.372398 15.1828 0.639818 14.9016 0.982926 14.7038C1.32603 14.5061 1.72942 14.4005 2.14207 14.4005C2.69523 14.401 3.22555 14.5908 3.6167 14.9283C4.00784 15.2657 4.22785 15.7233 4.22848 16.2005ZM2.14207 3.60049C2.55472 3.60049 2.95811 3.49492 3.30122 3.29713C3.64432 3.09935 3.91174 2.81823 4.06966 2.48932C4.22757 2.16041 4.26889 1.79849 4.18839 1.44933C4.10788 1.10016 3.90917 0.779431 3.61738 0.527697C3.32559 0.275962 2.95383 0.104529 2.54911 0.0350756C2.14439 -0.0343778 1.72488 0.00126819 1.34364 0.137506C0.962397 0.273744 0.636545 0.504454 0.407288 0.800463C0.178031 1.09647 0.0556652 1.44448 0.0556652 1.80049C0.0562864 2.27771 0.276303 2.73524 0.667445 3.07269C1.05859 3.41014 1.58891 3.59995 2.14207 3.60049ZM2.14207 7.20049C1.72942 7.20049 1.32603 7.30606 0.982926 7.50384C0.639818 7.70163 0.372398 7.98275 0.214483 8.31166C0.0565681 8.64057 0.0152503 9.00249 0.0957547 9.35165C0.176259 9.70082 0.374971 10.0215 0.66676 10.2733C0.958549 10.525 1.33031 10.6964 1.73503 10.7659C2.13976 10.8354 2.55926 10.7997 2.9405 10.6635C3.32175 10.5272 3.6476 10.2965 3.87685 10.0005C4.10611 9.70451 4.22848 9.35649 4.22848 9.00049C4.22785 8.52326 4.00784 8.06574 3.6167 7.72829C3.22555 7.39084 2.69523 7.20102 2.14207 7.20049Z" fill="black"/>
</svg>
