<svg width="17" height="16" viewBox="0 0 17 16" fill="none" xmlns="http://www.w3.org/2000/svg">
<path fill-rule="evenodd" clip-rule="evenodd" d="M2.03236 0.510659C2.21489 0.335947 2.43408 0.200417 2.67539 0.113049C2.9167 0.0256803 3.17462 -0.0115307 3.43207 0.0038815C3.68951 0.0192937 3.9406 0.0869772 4.1687 0.202447C4.39679 0.317916 4.59668 0.478535 4.75512 0.673659L6.62767 2.97966C6.97088 3.40266 7.0919 3.95366 6.95628 4.47366L6.38565 6.66366C6.35614 6.77709 6.35774 6.8959 6.39027 7.00857C6.42281 7.12123 6.48518 7.22392 6.57134 7.30666L9.13449 9.76366C9.2209 9.84641 9.32821 9.9063 9.44594 9.9375C9.56367 9.96869 9.68783 9.97012 9.80631 9.94166L12.0899 9.39466C12.3576 9.3305 12.637 9.32551 12.907 9.38008C13.177 9.43466 13.4305 9.54735 13.6484 9.70966L16.0541 11.5037C16.9189 12.1487 16.9982 13.3737 16.2241 14.1147L15.1454 15.1487C14.3735 15.8887 13.2197 16.2137 12.1441 15.8507C9.39131 14.9222 6.89189 13.4115 4.83127 11.4307C2.76499 9.45567 1.18904 7.06012 0.220315 4.42166C-0.157325 3.39166 0.181717 2.28466 0.953687 1.54466L2.03236 0.510659ZM13.106 0.999659C13.2443 0.999659 13.377 1.05234 13.4748 1.14611C13.5726 1.23987 13.6276 1.36705 13.6276 1.49966V2.99966H15.1924C15.3307 2.99966 15.4634 3.05234 15.5612 3.14611C15.659 3.23987 15.714 3.36705 15.714 3.49966C15.714 3.63227 15.659 3.75944 15.5612 3.85321C15.4634 3.94698 15.3307 3.99966 15.1924 3.99966H13.6276V5.49966C13.6276 5.63227 13.5726 5.75944 13.4748 5.85321C13.377 5.94698 13.2443 5.99966 13.106 5.99966C12.9676 5.99966 12.835 5.94698 12.7371 5.85321C12.6393 5.75944 12.5844 5.63227 12.5844 5.49966V3.99966H11.0196C10.8812 3.99966 10.7485 3.94698 10.6507 3.85321C10.5529 3.75944 10.498 3.63227 10.498 3.49966C10.498 3.36705 10.5529 3.23987 10.6507 3.14611C10.7485 3.05234 10.8812 2.99966 11.0196 2.99966H12.5844V1.49966C12.5844 1.36705 12.6393 1.23987 12.7371 1.14611C12.835 1.05234 12.9676 0.999659 13.106 0.999659Z" fill="black"/>
</svg>
