<svg width="28" height="26" viewBox="0 0 28 26" fill="none" xmlns="http://www.w3.org/2000/svg">
<path d="M6.1498 25.6H4.5498L5.5098 24.32C6.1498 23.44 6.5498 22.32 6.7898 20.96C2.7898 19.12 0.549805 15.68 0.549805 11.2C0.549805 4.32 5.7498 0 14.1498 0C22.5498 0 27.7498 4.32 27.7498 11.2C27.7498 18.24 22.6298 22.4 14.1498 22.4H13.5898C12.3098 23.92 10.0698 25.6 6.1498 25.6ZM14.1498 1.6C6.6298 1.6 2.1498 5.2 2.1498 11.2C2.1498 16.32 5.2698 18.72 7.9098 19.76L8.4698 20L8.3898 20.64C8.2298 21.92 7.9898 23.04 7.5098 24C10.1498 23.68 11.6698 22.32 12.5498 21.2L12.7898 20.88H14.1498C24.9498 20.88 26.1498 14.16 26.1498 11.28C26.1498 5.2 21.6698 1.6 14.1498 1.6Z" fill="white"/>
</svg>
