<svg width="25" height="21" viewBox="0 0 25 21" fill="none" xmlns="http://www.w3.org/2000/svg">
<path d="M12.5037 20.7482L12.0969 20.4032C3.35 13.1584 0.976807 10.6055 0.976807 6.46565C0.976807 3.01577 3.68902 0.255859 7.0793 0.255859C9.85932 0.255859 11.4188 1.84281 12.5037 3.08476C13.5886 1.84281 15.1481 0.255859 17.9282 0.255859C21.3184 0.255859 24.0307 3.01577 24.0307 6.46565C24.0307 10.6055 21.6575 13.1584 12.9106 20.4032L12.5037 20.7482ZM7.0793 1.63581C4.43488 1.63581 2.33292 3.77474 2.33292 6.46565C2.33292 9.98453 4.50269 12.3305 12.5037 18.9542C20.5048 12.3305 22.6745 9.98453 22.6745 6.46565C22.6745 3.77474 20.5726 1.63581 17.9282 1.63581C15.555 1.63581 14.2667 3.08476 13.2496 4.25772L12.5037 5.15469L11.7579 4.25772C10.7408 3.08476 9.45249 1.63581 7.0793 1.63581Z" fill="white"/>
</svg>
