<svg width="21" height="21" viewBox="0 0 21 21" fill="none" xmlns="http://www.w3.org/2000/svg">
<path d="M3.48775 13.7504C1.59108 13.7504 0.10083 12.2602 0.10083 10.3635C0.10083 8.46681 1.59108 6.97656 3.48775 6.97656C5.38443 6.97656 6.87468 8.46681 6.87468 10.3635C6.87468 12.2602 5.38443 13.7504 3.48775 13.7504ZM3.48775 8.33133C2.3362 8.33133 1.4556 9.21193 1.4556 10.3635C1.4556 11.515 2.3362 12.3956 3.48775 12.3956C4.63931 12.3956 5.51991 11.515 5.51991 10.3635C5.51991 9.21193 4.63931 8.33133 3.48775 8.33133Z" fill="white"/>
<path d="M17.0351 6.97648C15.1384 6.97648 13.6482 5.48624 13.6482 3.58956C13.6482 1.69288 15.1384 0.202637 17.0351 0.202637C18.9318 0.202637 20.422 1.69288 20.422 3.58956C20.422 5.48624 18.9318 6.97648 17.0351 6.97648ZM17.0351 1.55741C15.8836 1.55741 15.003 2.43801 15.003 3.58956C15.003 4.74111 15.8836 5.62171 17.0351 5.62171C18.1867 5.62171 19.0673 4.74111 19.0673 3.58956C19.0673 2.43801 18.1867 1.55741 17.0351 1.55741Z" fill="white"/>
<path d="M17.0351 20.5241C15.1384 20.5241 13.6482 19.0338 13.6482 17.1372C13.6482 15.2405 15.1384 13.7502 17.0351 13.7502C18.9318 13.7502 20.422 15.2405 20.422 17.1372C20.422 19.0338 18.9318 20.5241 17.0351 20.5241ZM17.0351 15.105C15.8836 15.105 15.003 15.9856 15.003 17.1372C15.003 18.2887 15.8836 19.1693 17.0351 19.1693C18.1867 19.1693 19.0673 18.2887 19.0673 17.1372C19.0673 15.9856 18.1867 15.105 17.0351 15.105Z" fill="white"/>
<path d="M6.20196 10.9629L14.9267 15.3252L14.3204 16.5364L5.5957 12.1741L6.20196 10.9629Z" fill="white"/>
<path d="M14.3211 4.18896L14.9267 5.40148L6.20202 9.76249L5.59644 8.54997L14.3211 4.18896Z" fill="white"/>
</svg>
